#define jrcla-hkkhy-0_width 16
#define jrcla-hkkhy-0_height 16
static char jrcla-hkkhy-0_bits[] = {
  0xFF, 0xFF, 0xFF, 0xFF, 0xFB, 0xFF, 0xC7, 0xFF, 0xCF, 0xFF, 0xE3, 0xFF, 
  0x7F, 0xFE, 0xFF, 0xF9, 0xFF, 0xFF, 0xFF, 0xFF, 0xFF, 0xFF, 0x07, 0xEA, 
  0x07, 0xC0, 0x4F, 0xE8, 0x67, 0xFF, 0xFF, 0xFF, };
